<?xml version="1.0" encoding="utf-8"?>
<!-- Generator: Adobe Illustrator 19.2.1, SVG Export Plug-In . SVG Version: 6.00 Build 0)  -->
<svg version="1.1" id="Capa_1" xmlns="http://www.w3.org/2000/svg" xmlns:xlink="http://www.w3.org/1999/xlink" x="0px" y="0px"
	 viewBox="0 0 512 512" style="enable-background:new 0 0 512 512;" xml:space="preserve">
<style type="text/css">
	.st0{fill:#F2F8FC;}
</style>
<g>
	<path class="st0" d="M441.1,12.8L13.9,52.5c-5,0.5-8.5,4.9-7.9,9.9L60.7,491c0.6,5,5.2,8.7,10.2,8.3c5-0.5,8.5-4.9,7.9-9.9
		L35.4,148.6L400,114.7c5-0.5,8.5-4.9,7.9-9.9c-0.6-5-5.2-8.7-10.2-8.3L33,130.4l-7.7-60.6l409.1-38l52.3,410.4l-326.9,30.4
		c-5,0.5-8.5,4.9-7.9,9.9c0.6,5,5.2,8.7,10.2,8.2l335.9-31.2c5-0.5,8.5-4.9,7.9-9.9L451.3,21C450.7,16,446.1,12.3,441.1,12.8z"/>
	<path class="st0" d="M52,91.5c-1.5,1.9-2.1,4.3-1.8,6.7c0.3,2.4,1.6,4.6,3.5,6.2c1.9,1.5,4.4,2.3,6.7,2.1c2.4-0.2,4.6-1.4,6.1-3.2
		c1.5-1.9,2.1-4.3,1.8-6.7c-0.3-2.4-1.6-4.7-3.5-6.2c-1.9-1.5-4.4-2.3-6.8-2.1C55.7,88.4,53.5,89.6,52,91.5z"/>
	<path class="st0" d="M82.2,88.7c-1.5,1.9-2.1,4.3-1.8,6.7c0.3,2.4,1.6,4.6,3.5,6.2c1.9,1.5,4.4,2.3,6.7,2.1
		c2.4-0.2,4.6-1.4,6.1-3.2c1.5-1.9,2.1-4.3,1.8-6.7C98.2,91.3,97,89,95,87.5c-1.9-1.5-4.4-2.3-6.7-2.1
		C85.9,85.6,83.7,86.8,82.2,88.7z"/>
	<path class="st0" d="M112.4,85.9c-1.5,1.9-2.1,4.3-1.8,6.7c0.3,2.4,1.6,4.6,3.5,6.2c1.9,1.5,4.4,2.3,6.7,2.1
		c2.4-0.2,4.6-1.4,6.1-3.3c1.5-1.9,2.1-4.3,1.8-6.7c-0.3-2.4-1.6-4.7-3.5-6.2c-1.9-1.5-4.4-2.3-6.8-2.1
		C116.1,82.8,113.9,84,112.4,85.9z"/>
</g>
<path class="st0" d="M187,177c-29.1-23.5-71-19.6-93.5,8.7c-7.9,9.9-12.6,21.9-13.7,34.6c-1,12.4,1.4,24.9,7.1,36.2
	c0.7,1.4,2.3,1.9,3.7,1.3c1.3-0.6,1.9-2.2,1.2-3.6c-5.2-10.4-7.5-21.9-6.5-33.3c1-11.7,5.3-22.7,12.6-31.8c20.7-26,59.2-29.5,85.9-8
	c12.7,10.3,20.9,24.7,23.2,40.7c2.2,15.9-1.8,31.7-11.3,44.2c-0.1,0.1-0.2,0.3-0.3,0.4c-0.2,0.3-0.4,0.5-0.6,0.8
	c-20.7,26-59.2,29.5-85.9,8c-0.1-0.1-0.3-0.2-0.4-0.3c0-0.2-0.1-0.5-0.1-0.7c-0.1-0.5-0.1-1.1-0.2-1.6c0-0.2,0-0.4,0-0.5
	c0-0.4-0.1-0.7-0.1-1.1c0-0.2,0-0.4,0-0.6c0-0.3,0-0.6,0-1c0-0.2,0-0.5,0-0.7c0-0.3,0-0.6,0-0.9c0-0.2,0-0.5,0-0.7
	c0-0.3,0-0.6,0-0.9c0-0.2,0-0.5,0-0.7c0-0.3,0-0.6,0.1-0.9c0-0.2,0.1-0.5,0.1-0.7c0-0.3,0.1-0.6,0.1-0.9c0-0.2,0.1-0.5,0.1-0.7
	c0-0.3,0.1-0.6,0.1-0.8c0-0.2,0.1-0.5,0.1-0.7c0.1-0.3,0.1-0.6,0.2-0.8c0-0.2,0.1-0.5,0.2-0.7c0.1-0.3,0.1-0.6,0.2-0.8
	c0.1-0.2,0.1-0.5,0.2-0.7c0.1-0.3,0.1-0.5,0.2-0.8c0.1-0.2,0.1-0.5,0.2-0.7c0.1-0.3,0.2-0.5,0.2-0.8c0.1-0.2,0.1-0.5,0.2-0.7
	c0.1-0.3,0.2-0.5,0.3-0.8c0.1-0.2,0.2-0.4,0.2-0.7c0.1-0.3,0.2-0.5,0.3-0.8c0.1-0.2,0.2-0.4,0.3-0.7c0.1-0.3,0.2-0.5,0.3-0.8
	c0.1-0.2,0.2-0.4,0.3-0.6c0.1-0.3,0.2-0.5,0.4-0.8c0.1-0.2,0.2-0.4,0.3-0.6c0.1-0.2,0.3-0.5,0.4-0.7c0.1-0.2,0.2-0.4,0.3-0.6
	c0.1-0.2,0.3-0.5,0.4-0.7c0.1-0.2,0.2-0.4,0.4-0.6c0.1-0.2,0.3-0.5,0.5-0.7c0.1-0.2,0.2-0.4,0.4-0.6c0.2-0.2,0.3-0.5,0.5-0.7
	c0.1-0.2,0.3-0.4,0.4-0.6c0.2-0.2,0.3-0.5,0.5-0.7c0.1-0.2,0.3-0.4,0.4-0.5c0.2-0.2,0.4-0.4,0.5-0.7c0.1-0.2,0.3-0.4,0.4-0.5
	c0.2-0.2,0.4-0.4,0.6-0.7c0.1-0.2,0.3-0.3,0.4-0.5c0.2-0.2,0.4-0.4,0.6-0.7c0.2-0.2,0.3-0.3,0.5-0.5c0.2-0.2,0.4-0.4,0.7-0.6
	c0.2-0.1,0.3-0.3,0.5-0.4c0.2-0.2,0.5-0.4,0.7-0.6c0.1-0.1,0.3-0.3,0.4-0.4c0.3-0.2,0.5-0.5,0.8-0.7c0.1-0.1,0.3-0.2,0.4-0.3
	c0.4-0.3,0.7-0.6,1.1-0.8c0.1,0,0.1-0.1,0.2-0.1c0.4-0.3,0.8-0.6,1.3-0.9c0.1-0.1,0.3-0.2,0.5-0.3c0.3-0.2,0.6-0.4,0.9-0.6
	c0.2-0.1,0.4-0.2,0.6-0.4c0.2-0.1,0.5-0.3,0.7-0.4c5.5,4.2,12.3,6.3,19.1,5.6s12.9-3.9,17.2-9c10.1,3.5,18.9,10.7,24.3,20
	c0.8,1.3,2.4,1.8,3.7,1.1c1.3-0.7,1.7-2.4,0.9-3.7c-6-10.1-15.1-17.8-25.9-21.9c2.4-4.6,3.3-9.9,2.7-15.2
	c-1.9-14.5-15.2-25.3-29.6-23.9c-1.5,0.1-2.5,1.5-2.3,2.9c0.2,1.5,1.5,2.6,3,2.4c11.5-1.1,22.1,7.5,23.6,19
	c0.7,5.2-0.6,10.3-3.6,14.5c0,0,0,0,0,0c-3.4,4.8-8.7,7.8-14.6,8.4c-5.9,0.5-11.9-1.5-16.4-5.5c0,0,0,0,0,0c-4-3.5-6.5-8.3-7.2-13.5
	c-0.7-5.6,0.8-11.1,4.3-15.5c0.9-1.1,0.7-2.9-0.5-3.8c-1.2-1-2.9-0.8-3.8,0.3c-4.4,5.5-6.3,12.4-5.4,19.5c0.7,5.3,2.9,10.3,6.4,14.4
	c0,0,0,0-0.1,0c-0.2,0.1-0.4,0.3-0.6,0.4c-0.3,0.2-0.6,0.4-0.9,0.6c-0.2,0.1-0.4,0.3-0.6,0.4c-0.3,0.2-0.5,0.4-0.8,0.6
	c-0.2,0.2-0.4,0.3-0.6,0.5c-0.3,0.2-0.5,0.4-0.8,0.6c-0.2,0.2-0.4,0.3-0.6,0.5c-0.2,0.2-0.5,0.4-0.7,0.6c-0.2,0.2-0.4,0.4-0.6,0.5
	c-0.2,0.2-0.5,0.4-0.7,0.6c-0.2,0.2-0.4,0.4-0.6,0.6c-0.2,0.2-0.4,0.4-0.7,0.7c-0.2,0.2-0.4,0.4-0.6,0.6c-0.2,0.2-0.4,0.4-0.6,0.7
	c-0.2,0.2-0.4,0.4-0.5,0.6c-0.2,0.2-0.4,0.5-0.6,0.7c-0.2,0.2-0.3,0.4-0.5,0.6c-0.2,0.2-0.4,0.5-0.6,0.7c-0.2,0.2-0.3,0.4-0.5,0.6
	c-0.2,0.2-0.4,0.5-0.6,0.7c-0.2,0.2-0.3,0.4-0.5,0.6c-0.2,0.3-0.4,0.5-0.5,0.8c-0.1,0.2-0.3,0.4-0.4,0.6c-0.2,0.3-0.4,0.6-0.5,0.8
	c-0.1,0.2-0.3,0.4-0.4,0.6c-0.2,0.3-0.4,0.6-0.5,0.9c-0.1,0.2-0.2,0.4-0.3,0.6c-0.2,0.4-0.4,0.8-0.6,1.2c-0.1,0.1-0.1,0.2-0.2,0.3
	c-0.3,0.5-0.5,1-0.7,1.5c-0.1,0.2-0.2,0.4-0.2,0.5c-0.2,0.3-0.3,0.7-0.5,1c-0.1,0.2-0.2,0.4-0.3,0.7c-0.1,0.3-0.3,0.6-0.4,0.9
	c-0.1,0.2-0.2,0.5-0.3,0.7c-0.1,0.3-0.2,0.6-0.3,0.9c-0.1,0.2-0.2,0.5-0.2,0.7c-0.1,0.3-0.2,0.6-0.3,0.9c-0.1,0.3-0.1,0.5-0.2,0.8
	c-0.1,0.3-0.2,0.6-0.2,0.9c-0.1,0.3-0.1,0.5-0.2,0.8c-0.1,0.3-0.1,0.6-0.2,0.9c-0.1,0.3-0.1,0.5-0.2,0.8c-0.1,0.3-0.1,0.6-0.2,0.9
	c0,0.3-0.1,0.5-0.1,0.8c-0.1,0.3-0.1,0.6-0.1,0.9c0,0.3-0.1,0.5-0.1,0.8c0,0.3-0.1,0.6-0.1,0.9c0,0.3-0.1,0.5-0.1,0.8
	c0,0.3-0.1,0.6-0.1,1c0,0.3,0,0.5-0.1,0.8c0,0.3,0,0.7,0,1c0,0.3,0,0.5,0,0.8c0,0.3,0,0.7,0,1c0,0.3,0,0.5,0,0.8c0,0.4,0,0.7,0,1.1
	c0,0.2,0,0.5,0,0.7c0,0.4,0.1,0.8,0.1,1.2c0,0.2,0,0.4,0,0.6c0.1,0.6,0.1,1.2,0.2,1.8c0.1,0.7,0.2,1.3,0.3,1.9
	c0,0.2,0.1,0.3,0.1,0.5c0,0,0,0,0,0c0.1,0.1,0.1,0.3,0.2,0.4c0,0,0,0,0,0c0.1,0.1,0.2,0.3,0.3,0.4c0,0,0,0,0,0
	c0.1,0.1,0.2,0.2,0.3,0.3c0,0,0,0,0,0l0.4,0.3c0.3,0.3,0.6,0.5,0.9,0.8c14.5,11.7,32.3,16.6,49.2,15.1s33-9.6,44.3-23.7
	c0.2-0.3,0.5-0.6,0.7-0.9l0.3-0.4c10.3-13.7,14.7-30.8,12.3-48.2C209.8,203.9,200.9,188.1,187,177z"/>
<path class="st0" d="M298.6,315.3c-29.1-23.5-71-19.6-93.5,8.7c-7.9,9.9-12.6,21.9-13.7,34.6c-1,12.4,1.4,24.9,7.1,36.2
	c0.7,1.4,2.3,1.9,3.7,1.3c1.3-0.6,1.9-2.2,1.2-3.6c-5.2-10.4-7.5-21.9-6.5-33.3c1-11.7,5.3-22.7,12.6-31.8c20.7-26,59.2-29.5,85.9-8
	c12.7,10.3,20.9,24.7,23.2,40.7c2.2,15.9-1.8,31.7-11.3,44.2c-0.1,0.1-0.2,0.3-0.3,0.4c-0.2,0.3-0.4,0.5-0.6,0.8
	c-20.7,26-59.2,29.5-85.9,8c-0.1-0.1-0.3-0.2-0.4-0.3c0-0.2-0.1-0.5-0.1-0.7c-0.1-0.5-0.1-1.1-0.2-1.6c0-0.2,0-0.4,0-0.5
	c0-0.4-0.1-0.7-0.1-1.1c0-0.2,0-0.4,0-0.6c0-0.3,0-0.6,0-1c0-0.2,0-0.5,0-0.7c0-0.3,0-0.6,0-0.9c0-0.2,0-0.5,0-0.7
	c0-0.3,0-0.6,0-0.9c0-0.2,0-0.5,0-0.7c0-0.3,0-0.6,0.1-0.9c0-0.2,0.1-0.5,0.1-0.7c0-0.3,0.1-0.6,0.1-0.9c0-0.2,0.1-0.5,0.1-0.7
	c0-0.3,0.1-0.6,0.1-0.8c0-0.2,0.1-0.5,0.1-0.7c0.1-0.3,0.1-0.6,0.2-0.8c0-0.2,0.1-0.5,0.2-0.7c0.1-0.3,0.1-0.6,0.2-0.8
	c0.1-0.2,0.1-0.5,0.2-0.7c0.1-0.3,0.1-0.5,0.2-0.8c0.1-0.2,0.1-0.5,0.2-0.7c0.1-0.3,0.2-0.5,0.2-0.8c0.1-0.2,0.1-0.5,0.2-0.7
	c0.1-0.3,0.2-0.5,0.3-0.8c0.1-0.2,0.2-0.4,0.2-0.7c0.1-0.3,0.2-0.5,0.3-0.8c0.1-0.2,0.2-0.4,0.3-0.7c0.1-0.3,0.2-0.5,0.3-0.8
	c0.1-0.2,0.2-0.4,0.3-0.6c0.1-0.3,0.2-0.5,0.4-0.8c0.1-0.2,0.2-0.4,0.3-0.6c0.1-0.2,0.3-0.5,0.4-0.7c0.1-0.2,0.2-0.4,0.3-0.6
	c0.1-0.2,0.3-0.5,0.4-0.7c0.1-0.2,0.2-0.4,0.4-0.6c0.1-0.2,0.3-0.5,0.5-0.7c0.1-0.2,0.2-0.4,0.4-0.6c0.2-0.2,0.3-0.5,0.5-0.7
	c0.1-0.2,0.3-0.4,0.4-0.6c0.2-0.2,0.3-0.5,0.5-0.7c0.1-0.2,0.3-0.4,0.4-0.5c0.2-0.2,0.4-0.4,0.5-0.7c0.1-0.2,0.3-0.4,0.4-0.5
	c0.2-0.2,0.4-0.4,0.6-0.7c0.1-0.2,0.3-0.3,0.4-0.5c0.2-0.2,0.4-0.4,0.6-0.7c0.2-0.2,0.3-0.3,0.5-0.5c0.2-0.2,0.4-0.4,0.7-0.6
	c0.2-0.1,0.3-0.3,0.5-0.4c0.2-0.2,0.5-0.4,0.7-0.6c0.1-0.1,0.3-0.3,0.4-0.4c0.3-0.2,0.5-0.5,0.8-0.7c0.1-0.1,0.3-0.2,0.4-0.3
	c0.4-0.3,0.7-0.6,1.1-0.8c0.1,0,0.1-0.1,0.2-0.1c0.4-0.3,0.8-0.6,1.3-0.9c0.1-0.1,0.3-0.2,0.5-0.3c0.3-0.2,0.6-0.4,0.9-0.6
	c0.2-0.1,0.4-0.2,0.6-0.4c0.2-0.1,0.5-0.3,0.7-0.4c5.5,4.2,12.3,6.3,19.1,5.6c6.8-0.6,12.9-3.9,17.2-9c10.1,3.5,18.9,10.7,24.3,20
	c0.8,1.3,2.4,1.8,3.7,1.1c1.3-0.7,1.7-2.4,0.9-3.7c-6-10.1-15.1-17.8-25.9-21.9c2.4-4.6,3.3-9.9,2.7-15.2
	c-1.9-14.5-15.2-25.3-29.6-23.9c-1.5,0.1-2.5,1.5-2.3,2.9c0.2,1.5,1.5,2.6,3,2.4c11.5-1.1,22.1,7.5,23.6,19
	c0.7,5.2-0.6,10.3-3.6,14.5c0,0,0,0,0,0c-3.4,4.8-8.7,7.8-14.6,8.4c-5.9,0.5-11.9-1.5-16.4-5.5c0,0,0,0,0,0c-4-3.5-6.5-8.3-7.2-13.5
	c-0.7-5.6,0.8-11.1,4.3-15.5c0.9-1.1,0.7-2.9-0.5-3.8c-1.2-1-2.9-0.8-3.8,0.3c-4.4,5.5-6.3,12.4-5.4,19.5c0.7,5.3,2.9,10.3,6.4,14.4
	c0,0,0,0-0.1,0c-0.2,0.1-0.4,0.3-0.6,0.4c-0.3,0.2-0.6,0.4-0.9,0.6c-0.2,0.1-0.4,0.3-0.6,0.4c-0.3,0.2-0.5,0.4-0.8,0.6
	c-0.2,0.2-0.4,0.3-0.6,0.5c-0.3,0.2-0.5,0.4-0.8,0.6c-0.2,0.2-0.4,0.3-0.6,0.5c-0.2,0.2-0.5,0.4-0.7,0.6c-0.2,0.2-0.4,0.4-0.6,0.5
	c-0.2,0.2-0.5,0.4-0.7,0.6c-0.2,0.2-0.4,0.4-0.6,0.6c-0.2,0.2-0.4,0.4-0.7,0.7c-0.2,0.2-0.4,0.4-0.6,0.6c-0.2,0.2-0.4,0.4-0.6,0.7
	c-0.2,0.2-0.4,0.4-0.5,0.6c-0.2,0.2-0.4,0.5-0.6,0.7c-0.2,0.2-0.3,0.4-0.5,0.6c-0.2,0.2-0.4,0.5-0.6,0.7c-0.2,0.2-0.3,0.4-0.5,0.6
	c-0.2,0.2-0.4,0.5-0.6,0.7c-0.2,0.2-0.3,0.4-0.5,0.6c-0.2,0.3-0.4,0.5-0.5,0.8c-0.1,0.2-0.3,0.4-0.4,0.6c-0.2,0.3-0.4,0.6-0.5,0.8
	c-0.1,0.2-0.3,0.4-0.4,0.6c-0.2,0.3-0.4,0.6-0.5,0.9c-0.1,0.2-0.2,0.4-0.3,0.6c-0.2,0.4-0.4,0.8-0.6,1.2c-0.1,0.1-0.1,0.2-0.2,0.3
	c-0.3,0.5-0.5,1-0.7,1.5c-0.1,0.2-0.2,0.4-0.2,0.5c-0.2,0.3-0.3,0.7-0.5,1c-0.1,0.2-0.2,0.4-0.3,0.7c-0.1,0.3-0.3,0.6-0.4,0.9
	c-0.1,0.2-0.2,0.5-0.3,0.7c-0.1,0.3-0.2,0.6-0.3,0.9c-0.1,0.2-0.2,0.5-0.2,0.7c-0.1,0.3-0.2,0.6-0.3,0.9c-0.1,0.3-0.1,0.5-0.2,0.8
	c-0.1,0.3-0.2,0.6-0.2,0.9c-0.1,0.3-0.1,0.5-0.2,0.8c-0.1,0.3-0.1,0.6-0.2,0.9c-0.1,0.3-0.1,0.5-0.2,0.8c-0.1,0.3-0.1,0.6-0.2,0.9
	c0,0.3-0.1,0.5-0.1,0.8c-0.1,0.3-0.1,0.6-0.1,0.9c0,0.3-0.1,0.5-0.1,0.8c0,0.3-0.1,0.6-0.1,0.9c0,0.3-0.1,0.5-0.1,0.8
	c0,0.3-0.1,0.6-0.1,1c0,0.3,0,0.5-0.1,0.8c0,0.3,0,0.7,0,1c0,0.3,0,0.5,0,0.8c0,0.3,0,0.7,0,1c0,0.3,0,0.5,0,0.8c0,0.4,0,0.7,0,1.1
	c0,0.2,0,0.5,0,0.7c0,0.4,0.1,0.8,0.1,1.2c0,0.2,0,0.4,0,0.6c0.1,0.6,0.1,1.2,0.2,1.8c0.1,0.7,0.2,1.3,0.3,1.9
	c0,0.2,0.1,0.3,0.1,0.5c0,0,0,0,0,0c0.1,0.1,0.1,0.3,0.2,0.4c0,0,0,0,0,0c0.1,0.1,0.2,0.3,0.3,0.4c0,0,0,0,0,0
	c0.1,0.1,0.2,0.2,0.3,0.3c0,0,0,0,0,0l0.4,0.3c0.3,0.3,0.6,0.5,0.9,0.8c14.5,11.7,32.3,16.6,49.2,15.1c16.9-1.6,33-9.6,44.3-23.7
	c0.2-0.3,0.5-0.6,0.7-0.9l0.3-0.4c10.3-13.7,14.7-30.8,12.3-48.2C321.4,342.2,312.4,326.5,298.6,315.3z"/>
<path class="st0" d="M410.9,146.8c-29.1-23.5-71-19.6-93.5,8.7c-7.9,9.9-12.6,21.9-13.7,34.6c-1,12.4,1.4,24.9,7.1,36.2
	c0.7,1.4,2.3,1.9,3.7,1.3c1.3-0.6,1.9-2.2,1.2-3.6c-5.2-10.4-7.5-21.9-6.5-33.3c1-11.7,5.3-22.7,12.6-31.8c20.7-26,59.2-29.5,85.9-8
	c12.7,10.3,20.9,24.7,23.2,40.7c2.2,15.9-1.8,31.7-11.3,44.2c-0.1,0.1-0.2,0.3-0.3,0.4c-0.2,0.3-0.4,0.5-0.6,0.8
	c-20.7,26-59.2,29.5-85.9,8c-0.1-0.1-0.3-0.2-0.4-0.3c0-0.2-0.1-0.5-0.1-0.7c-0.1-0.5-0.1-1.1-0.2-1.6c0-0.2,0-0.4,0-0.5
	c0-0.4-0.1-0.7-0.1-1.1c0-0.2,0-0.4,0-0.6c0-0.3,0-0.6,0-1c0-0.2,0-0.5,0-0.7c0-0.3,0-0.6,0-0.9c0-0.2,0-0.5,0-0.7
	c0-0.3,0-0.6,0-0.9c0-0.2,0-0.5,0-0.7c0-0.3,0-0.6,0.1-0.9c0-0.2,0.1-0.5,0.1-0.7c0-0.3,0.1-0.6,0.1-0.9c0-0.2,0.1-0.5,0.1-0.7
	c0-0.3,0.1-0.6,0.1-0.8c0-0.2,0.1-0.5,0.1-0.7c0.1-0.3,0.1-0.6,0.2-0.8c0-0.2,0.1-0.5,0.2-0.7c0.1-0.3,0.1-0.6,0.2-0.8
	c0.1-0.2,0.1-0.5,0.2-0.7c0.1-0.3,0.1-0.5,0.2-0.8c0.1-0.2,0.1-0.5,0.2-0.7c0.1-0.3,0.2-0.5,0.2-0.8c0.1-0.2,0.1-0.5,0.2-0.7
	c0.1-0.3,0.2-0.5,0.3-0.8c0.1-0.2,0.2-0.4,0.2-0.7c0.1-0.3,0.2-0.5,0.3-0.8c0.1-0.2,0.2-0.4,0.3-0.7c0.1-0.3,0.2-0.5,0.3-0.8
	c0.1-0.2,0.2-0.4,0.3-0.6c0.1-0.3,0.2-0.5,0.4-0.8c0.1-0.2,0.2-0.4,0.3-0.6c0.1-0.2,0.3-0.5,0.4-0.7c0.1-0.2,0.2-0.4,0.3-0.6
	c0.1-0.2,0.3-0.5,0.4-0.7c0.1-0.2,0.2-0.4,0.4-0.6c0.1-0.2,0.3-0.5,0.5-0.7c0.1-0.2,0.2-0.4,0.4-0.6c0.2-0.2,0.3-0.5,0.5-0.7
	c0.1-0.2,0.3-0.4,0.4-0.6c0.2-0.2,0.3-0.5,0.5-0.7c0.1-0.2,0.3-0.4,0.4-0.5c0.2-0.2,0.4-0.4,0.5-0.7c0.1-0.2,0.3-0.4,0.4-0.5
	c0.2-0.2,0.4-0.4,0.6-0.7c0.1-0.2,0.3-0.3,0.4-0.5c0.2-0.2,0.4-0.4,0.6-0.7c0.2-0.2,0.3-0.3,0.5-0.5c0.2-0.2,0.4-0.4,0.7-0.6
	c0.2-0.1,0.3-0.3,0.5-0.4c0.2-0.2,0.5-0.4,0.7-0.6c0.1-0.1,0.3-0.3,0.4-0.4c0.3-0.2,0.5-0.5,0.8-0.7c0.1-0.1,0.3-0.2,0.4-0.3
	c0.4-0.3,0.7-0.6,1.1-0.8c0.1,0,0.1-0.1,0.2-0.1c0.4-0.3,0.8-0.6,1.3-0.9c0.1-0.1,0.3-0.2,0.5-0.3c0.3-0.2,0.6-0.4,0.9-0.6
	c0.2-0.1,0.4-0.2,0.6-0.4c0.2-0.1,0.5-0.3,0.7-0.4c5.5,4.2,12.3,6.3,19.1,5.6c6.8-0.6,12.9-3.9,17.2-9c10.1,3.5,18.9,10.7,24.3,20
	c0.8,1.3,2.4,1.8,3.7,1.1c1.3-0.7,1.7-2.4,0.9-3.7c-6-10.1-15.1-17.8-25.9-21.9c2.4-4.6,3.3-9.9,2.7-15.2
	c-1.9-14.5-15.2-25.3-29.6-23.9c-1.5,0.1-2.5,1.5-2.3,2.9c0.2,1.5,1.5,2.6,3,2.4c11.5-1.1,22.1,7.5,23.6,19
	c0.7,5.2-0.6,10.3-3.6,14.5c0,0,0,0,0,0c-3.4,4.8-8.7,7.8-14.6,8.4c-5.9,0.5-11.9-1.5-16.4-5.5c0,0,0,0,0,0c-4-3.5-6.5-8.3-7.2-13.5
	c-0.7-5.6,0.8-11.1,4.3-15.5c0.9-1.1,0.7-2.9-0.5-3.8c-1.2-1-2.9-0.8-3.8,0.3c-4.4,5.5-6.3,12.4-5.4,19.5c0.7,5.3,2.9,10.3,6.4,14.4
	c0,0,0,0-0.1,0c-0.2,0.1-0.4,0.3-0.6,0.4c-0.3,0.2-0.6,0.4-0.9,0.6c-0.2,0.1-0.4,0.3-0.6,0.4c-0.3,0.2-0.5,0.4-0.8,0.6
	c-0.2,0.2-0.4,0.3-0.6,0.5c-0.3,0.2-0.5,0.4-0.8,0.6c-0.2,0.2-0.4,0.3-0.6,0.5c-0.2,0.2-0.5,0.4-0.7,0.6c-0.2,0.2-0.4,0.4-0.6,0.5
	c-0.2,0.2-0.5,0.4-0.7,0.6c-0.2,0.2-0.4,0.4-0.6,0.6c-0.2,0.2-0.4,0.4-0.7,0.7c-0.2,0.2-0.4,0.4-0.6,0.6c-0.2,0.2-0.4,0.4-0.6,0.7
	c-0.2,0.2-0.4,0.4-0.5,0.6c-0.2,0.2-0.4,0.5-0.6,0.7c-0.2,0.2-0.3,0.4-0.5,0.6c-0.2,0.2-0.4,0.5-0.6,0.7c-0.2,0.2-0.3,0.4-0.5,0.6
	c-0.2,0.2-0.4,0.5-0.6,0.7c-0.2,0.2-0.3,0.4-0.5,0.6c-0.2,0.3-0.4,0.5-0.5,0.8c-0.1,0.2-0.3,0.4-0.4,0.6c-0.2,0.3-0.4,0.6-0.5,0.8
	c-0.1,0.2-0.3,0.4-0.4,0.6c-0.2,0.3-0.4,0.6-0.5,0.9c-0.1,0.2-0.2,0.4-0.3,0.6c-0.2,0.4-0.4,0.8-0.6,1.2c-0.1,0.1-0.1,0.2-0.2,0.3
	c-0.3,0.5-0.5,1-0.7,1.5c-0.1,0.2-0.2,0.4-0.2,0.5c-0.2,0.3-0.3,0.7-0.5,1c-0.1,0.2-0.2,0.4-0.3,0.7c-0.1,0.3-0.3,0.6-0.4,0.9
	c-0.1,0.2-0.2,0.5-0.3,0.7c-0.1,0.3-0.2,0.6-0.3,0.9c-0.1,0.2-0.2,0.5-0.2,0.7c-0.1,0.3-0.2,0.6-0.3,0.9c-0.1,0.3-0.1,0.5-0.2,0.8
	c-0.1,0.3-0.2,0.6-0.2,0.9c-0.1,0.3-0.1,0.5-0.2,0.8c-0.1,0.3-0.1,0.6-0.2,0.9c-0.1,0.3-0.1,0.5-0.2,0.8c-0.1,0.3-0.1,0.6-0.2,0.9
	c0,0.3-0.1,0.5-0.1,0.8c-0.1,0.3-0.1,0.6-0.1,0.9c0,0.3-0.1,0.5-0.1,0.8c0,0.3-0.1,0.6-0.1,0.9c0,0.3-0.1,0.5-0.1,0.8
	c0,0.3-0.1,0.6-0.1,1c0,0.3,0,0.5-0.1,0.8c0,0.3,0,0.7,0,1c0,0.3,0,0.5,0,0.8c0,0.3,0,0.7,0,1c0,0.3,0,0.5,0,0.8c0,0.4,0,0.7,0,1.1
	c0,0.2,0,0.5,0,0.7c0,0.4,0.1,0.8,0.1,1.2c0,0.2,0,0.4,0,0.6c0.1,0.6,0.1,1.2,0.2,1.8c0.1,0.7,0.2,1.3,0.3,1.9
	c0,0.2,0.1,0.3,0.1,0.5c0,0,0,0,0,0c0.1,0.1,0.1,0.3,0.2,0.4c0,0,0,0,0,0c0.1,0.1,0.2,0.3,0.3,0.4c0,0,0,0,0,0
	c0.1,0.1,0.2,0.2,0.3,0.3c0,0,0,0,0,0l0.4,0.3c0.3,0.3,0.6,0.5,0.9,0.8c14.5,11.7,32.3,16.6,49.2,15.1c16.9-1.6,33-9.6,44.3-23.7
	c0.2-0.3,0.5-0.6,0.7-0.9l0.3-0.4c10.3-13.7,14.7-30.8,12.3-48.2C433.7,173.8,424.7,158,410.9,146.8z"/>
</svg>
